HIERARCHY
ROOT Hips
{
    OFFSET 0.000000 0.000000 0.000000
    CHANNELS 6 Xposition Yposition Zposition Zrotation Xrotation Yrotation
    JOINT Spine
    {
        OFFSET -0.000000 14.517291 0.000000
        CHANNELS 3 Zrotation Xrotation Yrotation
        JOINT Spine1
        {
            OFFSET -0.000000 37.558300 0.000000
            CHANNELS 3 Zrotation Xrotation Yrotation
            JOINT Neck
            {
                OFFSET -0.000000 37.404057 3.400369
                CHANNELS 3 Zrotation Xrotation Yrotation
                JOINT Head
                {
                    OFFSET -0.000000 24.785618 -3.540803
                    CHANNELS 3 Zrotation Xrotation Yrotation
                    End Site
                    {
                        OFFSET -0.000000 35.408028 0.000000
                    }
                }
            }
            JOINT LeftShoulder
            {
                OFFSET 6.992933 33.973492 -0.192664
                CHANNELS 3 Zrotation Xrotation Yrotation
                JOINT LeftArm
                {
                    OFFSET 21.527611 0.000000 0.000000
                    CHANNELS 3 Zrotation Xrotation Yrotation
                    JOINT LeftForeArm
                    {
                        OFFSET 56.353916 0.000000 0.000000
                        CHANNELS 3 Zrotation Xrotation Yrotation
                        JOINT LeftHand
                        {
                            OFFSET 47.774071 0.000000 0.000000
                            CHANNELS 3 Zrotation Xrotation Yrotation
                            End Site
                            {
                                OFFSET 26.556021 0.000000 0.000000
                            }
                        }
                    }
                }
            }
            JOINT RightShoulder
            {
                OFFSET -7.065357 33.973492 -0.192664
                CHANNELS 3 Zrotation Xrotation Yrotation
                JOINT RightArm
                {
                    OFFSET -21.527611 0.000000 0.000000
                    CHANNELS 3 Zrotation Xrotation Yrotation
                    JOINT RightForeArm
                    {
                        OFFSET -56.353916 0.000000 0.000000
                        CHANNELS 3 Zrotation Xrotation Yrotation
                        JOINT RightHand
                        {
                            OFFSET -47.774071 0.000000 0.000000
                            CHANNELS 3 Zrotation Xrotation Yrotation
                            End Site
                            {
                                OFFSET -26.556021 0.000000 0.000000
                            }
                        }
                    }
                }
            }
        }
    }
    JOINT LeftUpLeg
    {
        OFFSET 17.704014 0.000000 0.000000
        CHANNELS 3 Zrotation Xrotation Yrotation
        JOINT LeftLeg
        {
            OFFSET -0.000000 -81.181816 0.000000
            CHANNELS 3 Zrotation Xrotation Yrotation
            JOINT LeftFoot
            {
                OFFSET -0.000000 -62.821102 0.000000
                CHANNELS 3 Zrotation Xrotation Yrotation
                JOINT LeftToeBase
                {
                    OFFSET -0.000000 -11.507608 26.556021
                    CHANNELS 3 Zrotation Xrotation Yrotation
                    End Site
                    {
                        OFFSET -0.000000 0.000000 7.081605
                    }
                }
            }
        }
    }
    JOINT RightUpLeg
    {
        OFFSET -17.704014 0.000000 0.000000
        CHANNELS 3 Zrotation Xrotation Yrotation
        JOINT RightLeg
        {
            OFFSET -0.000000 -81.181816 0.000000
            CHANNELS 3 Zrotation Xrotation Yrotation
            JOINT RightFoot
            {
                OFFSET -0.000000 -62.821102 0.000000
                CHANNELS 3 Zrotation Xrotation Yrotation
                JOINT RightToeBase
                {
                    OFFSET -0.000000 -11.507608 26.556021
                    CHANNELS 3 Zrotation Xrotation Yrotation
                    End Site
                    {
                        OFFSET -0.000000 0.000000 7.081605
                    }
                }
            }
        }
    }
}
MOTION
Frames:    7
Frame Time:    0.008333
23.362928    157.188599    -30.816095    0.400391    -0.322384    -43.621971    1.642976    -1.919117    1.795890    0.027313    2.500966    0.585998    20.053143    5.987855    18.627533    -13.449270    2.936616    15.953129    8.211859    4.401908    -16.849615    -19.156183    -2.700140    -46.746918    14.787725    -42.129486    -22.793917    -28.471699    -30.755156    -41.980209    -3.375678    5.010743    -2.064953    34.058117    8.129533    78.033096    3.399271    -11.185551    101.209328    14.792635    -11.546232    28.468298    17.627037    -18.689396    4.877812    -12.383276    21.063086    -4.977581    -6.811235    -2.266992    37.511711    0.000000    0.000000    0.000000    -13.381523    8.673557    -7.914081    3.437144    15.803741    -2.951059    7.919867    -17.174633    -15.730481    0.000000    0.000000    0.000000    
23.371258    157.193649    -30.817307    0.411716    -0.317131    -43.654305    1.638935    -1.927204    1.790917    0.024853    2.494485    0.584353    20.074720    5.990715    18.638971    -13.474854    2.937550    15.960751    8.254083    4.310003    -16.848949    -19.137600    -3.162405    -46.774109    15.140510    -42.241531    -22.938086    -28.438118    -30.786797    -42.102261    -3.359556    5.013223    -2.060167    34.059155    8.121577    78.032745    3.404320    -11.183014    101.210464    14.797964    -11.548033    28.471836    17.622040    -18.683685    4.882601    -12.374424    21.042812    -4.953115    -6.812553    -2.261328    37.511417    0.000000    0.000000    0.000000    -13.393119    8.661732    -7.895043    3.440548    15.775148    -2.954390    7.920496    -17.158728    -15.721954    0.000000    0.000000    0.000000    
23.377066    157.201004    -30.820242    0.418668    -0.312471    -43.691528    1.278527    -0.886187    1.723829    0.687854    0.352986    0.568081    20.150578    7.163239    18.393343    -13.864475    2.941190    15.870332    7.387231    5.194123    -17.282986    -19.328123    -4.136383    -46.303185    14.761851    -41.818638    -23.651339    -29.312569    -29.750807    -42.922626    -3.181435    5.832888    -1.661591    34.153683    8.093894    77.416504    3.721821    -10.336474    101.372650    14.556692    -11.166940    28.399170    17.622351    -18.667194    4.901456    -12.358368    21.017860    -4.964624    -6.831550    -2.262273    37.523640    0.000000    0.000000    0.000000    -13.395197    8.648949    -7.889155    3.425529    15.751751    -2.933763    7.919767    -17.141806    -15.715263    0.000000    0.000000    0.000000    
23.383427    157.211685    -30.820080    0.431966    -0.313619    -43.730621    1.261165    -0.989286    1.707546    0.707270    0.473912    0.561415    20.136551    7.213120    18.405302    -13.883837    2.866647    15.882191    7.403341    5.100135    -17.316795    -19.245804    -4.590233    -46.280418    15.281780    -41.807861    -23.675030    -28.276882    -30.161661    -42.361633    -3.192715    5.819838    -1.567333    34.145721    8.044796    77.372490    3.702150    -10.373971    101.342461    14.570654    -11.171769    28.421764    17.613188    -18.644567    4.906867    -12.350532    20.975752    -4.941696    -6.845037    -2.254400    37.533600    0.000000    0.000000    0.000000    -13.409021    8.644587    -7.862520    3.423405    15.706587    -2.930365    7.927258    -17.127102    -15.721806    0.000000    0.000000    0.000000    
23.394972    157.216980    -30.818888    0.446779    -0.313635    -43.765865    1.252376    -0.993789    1.701543    0.708888    0.474135    0.559480    20.142801    7.214716    18.415020    -13.905404    2.839726    15.886415    7.433618    5.004048    -17.305584    -19.204737    -5.006730    -46.287605    15.605205    -42.024677    -23.915098    -28.191492    -30.363379    -42.326984    -3.192241    5.816920    -1.568631    34.127701    8.058966    77.377243    3.697272    -10.412185    101.351738    14.578907    -11.200659    28.434399    17.600819    -18.635401    4.915064    -12.340614    20.955307    -4.942831    -6.834318    -2.242159    37.555862    0.000000    0.000000    0.000000    -13.425852    8.630546    -7.866912    3.413385    15.686931    -2.907535    7.912094    -17.110346    -15.703022    0.000000    0.000000    0.000000    
23.405037    157.226791    -30.820286    0.458990    -0.313513    -43.804337    1.246559    -0.991491    1.700786    0.706072    0.461738    0.559259    20.150349    7.207930    18.417042    -13.915217    2.831483    15.884507    7.463016    4.929124    -17.295050    -19.196007    -5.487863    -46.309952    15.909778    -42.119232    -24.104723    -28.233919    -30.311451    -42.588234    -3.188029    5.808313    -1.559218    34.143433    8.057562    77.357033    3.710971    -10.394337    101.362213    14.546004    -11.211298    28.412380    17.592213    -18.618280    4.911884    -12.331150    20.923786    -4.925473    -6.839735    -2.228813    37.554073    0.000000    0.000000    0.000000    -13.439713    8.621920    -7.844802    3.409864    15.651283    -2.885472    7.911262    -17.096756    -15.716163    0.000000    0.000000    0.000000    
23.414001    157.236359    -30.818457    0.471214    -0.315928    -43.840652    1.230851    -0.999082    1.696297    0.721845    0.465758    0.557687    20.148991    7.212228    18.419884    -13.935103    2.803839    15.882785    7.484712    4.840754    -17.288002    -19.222633    -5.981610    -46.326653    16.271662    -42.116726    -24.238182    -28.168455    -30.235655    -42.632557    -3.195489    5.813244    -1.569139    34.133717    8.068087    77.370522    3.709660    -10.416108    101.360977    14.522362    -11.236471    28.419357    17.579802    -18.604731    4.918115    -12.320582    20.898851    -4.906792    -6.859397    -2.224612    37.570843    0.000000    0.000000    0.000000    -13.454069    8.614445    -7.828685    3.400410    15.620360    -2.868689    7.899499    -17.069818    -15.710656    0.000000    0.000000    0.000000    
